<svg xmlns="http://www.w3.org/2000/svg" xmlns:xlink="http://www.w3.org/1999/xlink" viewBox="0 0 1120.061 1054.382"><defs><linearGradient id="Gradiente_sem_nome_2" x1="1108.932" y1="496.643" x2="-12.068" y2="1281.575" gradientTransform="matrix(1, 0, 0, -1, 0, 1433.696)" gradientUnits="userSpaceOnUse"><stop offset="0" stop-color="#b4946e"/><stop offset="1" stop-color="#a0988d"/></linearGradient></defs><g id="Camada_2" data-name="Camada 2"><g id="Logo"><g id="Logo_agrupada" data-name="Logo agrupada"><path id="LOGO_RA" data-name="LOGO RA" d="M1118.88,936.022h0s-126.449,99.87-265,50c0,0-38.286-13.325-73-49,0,0-34.235-26.5-79-103,0,0-20.044-44.607-37-75l-46,120s-99.758,268.53-365,141c0,0-306.377-136.915-246-542,0,0,28.584-322.749,370-445,0,0,232-94.392,465,36,0,0,77.583,40.763,122,89,0,0,68.78,68.756,82,111,0,0-35.13-56.08-94-107,0,0-101.726-108.067-281-140,0,0-145.79-31.646-297,27,0,0-193.253,61.564-300,263,0,0-44.685,90.5-54,167,0,0-25.125,141.3,21,270,0,0,41.36,168.169,216,260,0,0,219.51,131.08,346-124,0,0,9.183-18.982,25-65-.034.044,28-75,28-75s-33.262-65.282-72-100c0,0-22.527-21.252-41-32a170.509,170.509,0,0,0-59-14H406.889v229H333.88v-586h143c.308.031,244.214-13.064,245,178,0,.268,4.433,159.845-197,175-.007.2,0,1,0,1s32.921,4.254,72,37c1.01,1.019,12.753,7.4,73,78-.011,0,128-331,128-331l217,553s11.63,33.061,53,16c0,.015,9.7-3.085,46-22a.743.743,0,0,1,1,0c.411.522,5,7,5,7s.811,1.131-1,2m-712-681,.009,333H496.88s61.592,3.17,108-46c0,0,30.089-24.833,39-84,0,0,9.363-36.009,2-72,0,0-12.6-129.008-150-131Zm360,238-89,229,12,16h172Zm-70,254h172l76,216s-68.718-2.588-141-82c0,0-56.791-62.983-74-88C729.88,793.022,725.8,785.635,696.88,747.022Z" fill-rule="evenodd" fill="url(#Gradiente_sem_nome_2)"/></g></g></g></svg>