<svg xmlns="http://www.w3.org/2000/svg" viewBox="0 0 1464.491 244.921"><g id="Camada_2" data-name="Camada 2"><g id="Logo"><g id="Logo_agrupada" data-name="Logo agrupada"><g id="Linhas"><rect x="1295.42" y="209.571" width="138" height="2.801" fill="#ab967c"/><rect x="31.071" y="209.471" width="138" height="2.801" fill="#ab967c"/></g><g id="Biomédica_esteta" data-name="Biomédica esteta"><path d="M251.568,215.354a16.392,16.392,0,0,1,3.946,10.933,17.483,17.483,0,0,1-2.424,9.174,16.589,16.589,0,0,1-7.226,6.37,26.481,26.481,0,0,1-11.646,2.329h-21.2V177.42h20.821q9.982,0,15.069,4.611a15.368,15.368,0,0,1,5.086,11.932q0,6.369-3.423,10.314a17.15,17.15,0,0,1-8.746,5.372A16.246,16.246,0,0,1,251.568,215.354ZM217.3,207.748h16.732q7.509,0,11.551-3.565t4.041-9.84a12.143,12.143,0,0,0-3.993-9.6q-3.993-3.516-12.075-3.517H217.3ZM246.625,236.6q4.61-3.851,4.611-10.6a13.125,13.125,0,0,0-4.706-10.6q-4.707-3.945-12.883-3.945H217.3v29h16.636Q242.013,240.452,246.625,236.6Z" fill="#ab967c"/><path d="M287.552,177.42v66.74h-4.278V177.42Z" fill="#ab967c"/><path d="M331.57,240.6a30.316,30.316,0,0,1-11.6-12.121,39.17,39.17,0,0,1,0-35.225,30.409,30.409,0,0,1,11.6-12.073,34.156,34.156,0,0,1,33.275,0,30.409,30.409,0,0,1,11.6,12.073,39.17,39.17,0,0,1,0,35.225,30.316,30.316,0,0,1-11.6,12.121,34.156,34.156,0,0,1-33.275,0Zm30.9-3.185A26.212,26.212,0,0,0,372.5,226.857a36.879,36.879,0,0,0,0-32.039,26.209,26.209,0,0,0-10.029-10.552,29.278,29.278,0,0,0-28.522,0,26.524,26.524,0,0,0-10.078,10.552,36.467,36.467,0,0,0,0,32.039,26.526,26.526,0,0,0,10.078,10.553,29.278,29.278,0,0,0,28.522,0Z" fill="#ab967c"/><path d="M471.039,178.846V244.16H466.76V187.783l-25.1,56.377h-3.423l-25.193-56.377V244.16h-4.279V178.846h4.564l26.62,59.7,26.619-59.7Z" fill="#ab967c"/><path d="M506.215,181.033v27.856h26.62V212.5h-26.62v28.047h29.472v3.612H501.936V177.42h33.751v3.613Zm19.014-18.159L506.6,174.663v-3.517l18.634-12.455Z" fill="#ab967c"/><path d="M608.654,186.262q9.173,8.841,9.174,24.623t-9.174,24.529q-9.175,8.748-26.1,8.746H563.828V177.42h18.728Q599.479,177.42,608.654,186.262Zm-3.09,46.442q7.89-7.842,7.891-21.819,0-14.068-7.891-21.961t-23.008-7.891h-14.45v59.515h14.45Q597.675,240.548,605.564,232.7Z" fill="#ab967c"/><path d="M650.247,177.42v66.74h-4.278V177.42Z" fill="#ab967c"/><path d="M682.618,193.249a30.708,30.708,0,0,1,11.409-12.121,31.027,31.027,0,0,1,16.3-4.373q11.408,0,19.2,5.323a30.556,30.556,0,0,1,11.409,14.927H736a24.408,24.408,0,0,0-9.46-12.026q-6.609-4.422-16.209-4.421a27.227,27.227,0,0,0-13.976,3.66,25.687,25.687,0,0,0-9.887,10.553,34.218,34.218,0,0,0-3.613,16.114,33.433,33.433,0,0,0,3.613,15.925,26.152,26.152,0,0,0,9.887,10.5,26.954,26.954,0,0,0,13.976,3.707q9.6,0,16.209-4.42A24.41,24.41,0,0,0,736,224.575h4.944A30.538,30.538,0,0,1,729.536,239.5q-7.8,5.325-19.2,5.323a31.271,31.271,0,0,1-16.3-4.325,30.358,30.358,0,0,1-11.409-12.074,39.466,39.466,0,0,1,0-35.177Z" fill="#ab967c"/><path d="M807.4,227.047H775.74l-6.37,17.113h-4.658l24.528-65.219h4.754l24.433,65.219h-4.659Zm-1.331-3.612-14.451-38.884-14.546,38.884Z" fill="#ab967c"/><path d="M890.681,181.033v27.856H917.3V212.5H890.681v28.047h29.472v3.612H886.4V177.42h33.75v3.613Z" fill="#ab967c"/><path d="M956.28,242.544a18.606,18.606,0,0,1-7.559-6.18,17.3,17.3,0,0,1-3.089-8.651H950.1a16.162,16.162,0,0,0,4.9,9.317q4.137,4.089,12.6,4.088a19.22,19.22,0,0,0,8.6-1.806,13.722,13.722,0,0,0,5.657-4.944,12.664,12.664,0,0,0,2-6.94,11.818,11.818,0,0,0-2.329-7.7,14.456,14.456,0,0,0-5.8-4.279,84.494,84.494,0,0,0-9.364-3.042,75.152,75.152,0,0,1-10.41-3.423,16.5,16.5,0,0,1-6.655-5.276q-2.711-3.565-2.709-9.744a15.842,15.842,0,0,1,2.518-8.7,17.31,17.31,0,0,1,7.179-6.228,24.128,24.128,0,0,1,10.743-2.281q8.841,0,14.261,4.373a17.055,17.055,0,0,1,6.465,10.743h-4.564a14.16,14.16,0,0,0-2.519-5.229,14.765,14.765,0,0,0-5.515-4.421,19.061,19.061,0,0,0-8.509-1.759,17.372,17.372,0,0,0-11.218,3.66,13.135,13.135,0,0,0-2.187,17.493,15.027,15.027,0,0,0,5.848,4.374,68.2,68.2,0,0,0,9.364,2.994,82.658,82.658,0,0,1,10.41,3.471,16.267,16.267,0,0,1,6.56,5.229q2.709,3.566,2.71,9.649a16.283,16.283,0,0,1-2.377,8.462,17.845,17.845,0,0,1-6.988,6.513,23.007,23.007,0,0,1-11.17,2.518A26.309,26.309,0,0,1,956.28,242.544Z" fill="#ab967c"/><path d="M1053.061,177.42v3.613h-19.014V244.16h-4.279V181.033h-19.013V177.42Z" fill="#ab967c"/><path d="M1082.723,181.033v27.856h26.621V212.5h-26.621v28.047H1112.2v3.612h-33.75V177.42h33.75v3.613Z" fill="#ab967c"/><path d="M1177.223,177.42v3.613h-19.014V244.16h-4.279V181.033h-19.013V177.42Z" fill="#ab967c"/><path d="M1240.446,227.047h-31.659l-6.37,17.113h-4.658l24.528-65.219h4.754l24.432,65.219h-4.658Zm-1.331-3.612-14.451-38.884-14.546,38.884Z" fill="#ab967c"/></g><g id="Dra._Renata_dos_Anjos" data-name="Dra. Renata dos Anjos"><path d="M30.02,1.9A44.049,44.049,0,0,1,48.07,5.605,47.175,47.175,0,0,1,62.7,15.675,46.192,46.192,0,0,1,72.485,30.5,46.821,46.821,0,0,1,76,48.64a48.124,48.124,0,0,1-3.325,17.765,46.855,46.855,0,0,1-9.215,14.82A43.558,43.558,0,0,1,49.5,91.3,42.1,42.1,0,0,1,31.73,95H0V1.9ZM20.33,93.48a49.013,49.013,0,0,0,18.335-3.23A36.683,36.683,0,0,0,52.25,81.035a40.018,40.018,0,0,0,8.36-14.25A55.34,55.34,0,0,0,63.46,48.64a57.461,57.461,0,0,0-2.85-18.62,38.953,38.953,0,0,0-8.36-14.25A37.327,37.327,0,0,0,38.665,6.65,49.073,49.073,0,0,0,20.33,3.42H11.4V93.48Z" fill="#ab967c"/><path d="M114.188,1.9a59.123,59.123,0,0,1,13.395,1.52,35.239,35.239,0,0,1,11.685,4.94,25.73,25.73,0,0,1,8.17,8.74,25.689,25.689,0,0,1,3.04,12.92q0,11.4-6.555,18.43a33.025,33.025,0,0,1-17.2,9.5L144.4,85.69a18.946,18.946,0,0,0,4.37,5.605,17.369,17.369,0,0,0,6.46,3.7h-17.86l-22.61-36.48h-14.25V95H88.728V1.9Zm-1.14,54.91q11.97,0,18.905-7.315t6.935-19.475q0-12.348-6.65-19.475T113.048,3.42h-12.54V56.81Z" fill="#ab967c"/><path d="M158.837,95,195.127.57,231.8,95h-12.92l-12.73-35.91h-31.73L160.547,95ZM174.8,57.57h30.21L190,18.43Z" fill="#ab967c"/><path d="M251.936,82.08a6.7,6.7,0,0,1,4.75,2,6.247,6.247,0,0,1,2.09,4.655,6.353,6.353,0,0,1-2.09,4.56,6.443,6.443,0,0,1-9.5,0,6.345,6.345,0,0,1-2.09-4.56,6.149,6.149,0,0,1,2.09-4.75A6.872,6.872,0,0,1,251.936,82.08Z" fill="#ab967c"/><path d="M337.622,1.9a59.129,59.129,0,0,1,13.395,1.52A35.242,35.242,0,0,1,362.7,8.36a25.73,25.73,0,0,1,8.17,8.74,25.679,25.679,0,0,1,3.041,12.92q0,11.4-6.555,18.43a33.032,33.032,0,0,1-17.2,9.5l17.67,27.74A18.942,18.942,0,0,0,372.2,91.3a17.365,17.365,0,0,0,6.461,3.7H360.8L338.191,58.52h-14.25V95H312.162V1.9Zm-1.141,54.91q11.97,0,18.905-7.315t6.936-19.475q0-12.348-6.651-19.475T336.481,3.42h-12.54V56.81Z" fill="#ab967c"/><path d="M445.16,1.9V3.42H402.6V46.93h26.98v1.71H402.6V93.48h44.27V95H391.2V1.9Z" fill="#ab967c"/><path d="M463.212,95V1.9h9.5l51.68,71.25V1.9h1.9V95l-61.37-83.98L464.732,95Z" fill="#ab967c"/><path d="M543.389,95,579.679.57,616.349,95h-12.92L590.7,59.09H558.969L545.1,95Zm15.96-37.43h30.21l-15.01-39.14Z" fill="#ab967c"/><path d="M607.8,1.9h70.68V4.18h-29.64V95h-11.59V4.18H607.8Z" fill="#ab967c"/><path d="M671.637,95,707.927.57,744.6,95h-12.92L718.948,59.09H687.217L673.347,95ZM687.6,57.57h30.21L702.8,18.43Z" fill="#ab967c"/><path d="M832.185,1.9a44.049,44.049,0,0,1,18.05,3.705,47.175,47.175,0,0,1,14.63,10.07A46.225,46.225,0,0,1,874.65,30.5a46.8,46.8,0,0,1,3.515,18.145,48.144,48.144,0,0,1-3.325,17.765,46.837,46.837,0,0,1-9.215,14.82A43.558,43.558,0,0,1,851.66,91.3,42.1,42.1,0,0,1,833.9,95h-31.73V1.9ZM822.5,93.48a49.013,49.013,0,0,0,18.335-3.23,36.683,36.683,0,0,0,13.585-9.215,40.018,40.018,0,0,0,8.36-14.25,55.34,55.34,0,0,0,2.85-18.145,57.461,57.461,0,0,0-2.85-18.62,38.953,38.953,0,0,0-8.36-14.25A37.327,37.327,0,0,0,840.83,6.65,49.073,49.073,0,0,0,822.5,3.42h-8.93V93.48Z" fill="#ab967c"/><path d="M930.6,1.33a46.538,46.538,0,0,1,18.525,3.705,48.557,48.557,0,0,1,15.105,10.07A46.831,46.831,0,0,1,978.1,48.64a44.685,44.685,0,0,1-3.7,18.145,47.19,47.19,0,0,1-10.165,14.82,48.505,48.505,0,0,1-15.105,10.07,46.538,46.538,0,0,1-18.525,3.7,44.233,44.233,0,0,1-17.955-3.7,46.768,46.768,0,0,1-14.725-10.07,48.814,48.814,0,0,1-9.974-14.82,44.685,44.685,0,0,1-3.7-18.145,46.524,46.524,0,0,1,3.7-18.525,48.25,48.25,0,0,1,9.974-15.01,46.817,46.817,0,0,1,14.725-10.07A44.233,44.233,0,0,1,930.6,1.33ZM897.163,46.17a56.691,56.691,0,0,0,2.469,15.865,56.472,56.472,0,0,0,7.125,15.485,42.576,42.576,0,0,0,11.4,11.685,25.951,25.951,0,0,0,15.1,4.655,24.145,24.145,0,0,0,14.25-4.275,37.878,37.878,0,0,0,10.165-10.64,48.419,48.419,0,0,0,6.08-13.965,56.25,56.25,0,0,0,2-14.25,57.989,57.989,0,0,0-2.469-16.245A56.8,56.8,0,0,0,956.158,19a40.966,40.966,0,0,0-11.5-11.59,27.773,27.773,0,0,0-15.771-4.56,23.353,23.353,0,0,0-13.87,4.18,36.191,36.191,0,0,0-9.88,10.64,51.478,51.478,0,0,0-5.984,14.06A56.922,56.922,0,0,0,897.163,46.17Z" fill="#ab967c"/><path d="M1043.269,14.82a19.72,19.72,0,0,0-4.274-4.465,38.4,38.4,0,0,0-6.936-4.37,50.14,50.14,0,0,0-8.644-3.325,34.838,34.838,0,0,0-9.595-1.33,29.384,29.384,0,0,0-7.316.95,19.991,19.991,0,0,0-6.65,3.04,16.7,16.7,0,0,0-4.75,5.13,14.263,14.263,0,0,0-1.805,7.41,13.787,13.787,0,0,0,4.085,10.165,44.941,44.941,0,0,0,10.071,7.41q5.985,3.325,13.109,6.46a86.05,86.05,0,0,1,13.11,7.125,40.915,40.915,0,0,1,10.071,9.4,21.618,21.618,0,0,1,4.085,13.395,20.949,20.949,0,0,1-2.755,11.02,23.371,23.371,0,0,1-7.221,7.5,32.79,32.79,0,0,1-10.069,4.37,45,45,0,0,1-11.116,1.425,43.457,43.457,0,0,1-12.065-1.615,81.832,81.832,0,0,1-9.975-3.515A77.31,77.31,0,0,1,987.41,87.5a17.513,17.513,0,0,0-3.8-1.805V75.05a36.545,36.545,0,0,0,12.73,13.585,35.887,35.887,0,0,0,20.14,5.6,36.648,36.648,0,0,0,8.17-.95,26.767,26.767,0,0,0,7.6-2.945,17.02,17.02,0,0,0,5.6-5.225,13.583,13.583,0,0,0,2.186-7.79,13.422,13.422,0,0,0-3.991-9.88,42.027,42.027,0,0,0-10.07-7.22Q1019.9,57,1012.87,54.055a85.145,85.145,0,0,1-13.111-6.84,36.659,36.659,0,0,1-10.07-9.405A22.388,22.388,0,0,1,985.7,24.32a22.125,22.125,0,0,1,2.375-10.545,23.77,23.77,0,0,1,6.364-7.6,27.06,27.06,0,0,1,9.12-4.655A37.976,37.976,0,0,1,1014.389,0a49.578,49.578,0,0,1,15.96,2.565,70.829,70.829,0,0,1,13.11,5.8Z" fill="#ab967c"/><path d="M1098.176,95,1134.466.57,1171.136,95h-12.92l-12.729-35.91h-31.731L1099.886,95Zm15.96-37.43h30.21l-15.01-39.14Z" fill="#ab967c"/><path d="M1188.426,95V1.9h9.5l51.68,71.25V1.9h1.9V95l-61.37-83.98-.19,83.98Z" fill="#ab967c"/><path d="M1287.605,1.9V69.35q0,12.352-5.51,19.475t-18.429,7.125l1.139-2.09a9.58,9.58,0,0,0,6.365-2,11.841,11.841,0,0,0,3.515-5.13,25.525,25.525,0,0,0,1.425-6.745q.285-3.608.285-6.84V1.9Z" fill="#ab967c"/><path d="M1347.263,1.33a46.546,46.546,0,0,1,18.526,3.705,48.564,48.564,0,0,1,15.1,10.07,46.831,46.831,0,0,1,13.87,33.535,44.685,44.685,0,0,1-3.7,18.145,47.19,47.19,0,0,1-10.165,14.82,48.512,48.512,0,0,1-15.1,10.07,46.546,46.546,0,0,1-18.526,3.7,44.233,44.233,0,0,1-17.955-3.7,46.768,46.768,0,0,1-14.725-10.07,48.832,48.832,0,0,1-9.974-14.82,44.685,44.685,0,0,1-3.7-18.145,46.524,46.524,0,0,1,3.7-18.525,48.267,48.267,0,0,1,9.974-15.01,46.817,46.817,0,0,1,14.725-10.07A44.233,44.233,0,0,1,1347.263,1.33Zm-33.439,44.84a56.691,56.691,0,0,0,2.469,15.865,56.472,56.472,0,0,0,7.125,15.485,42.576,42.576,0,0,0,11.4,11.685,25.951,25.951,0,0,0,15.1,4.655,24.145,24.145,0,0,0,14.25-4.275,37.878,37.878,0,0,0,10.165-10.64,48.419,48.419,0,0,0,6.08-13.965,56.208,56.208,0,0,0,2-14.25,57.992,57.992,0,0,0-2.47-16.245A56.8,56.8,0,0,0,1372.819,19a40.966,40.966,0,0,0-11.495-11.59,27.773,27.773,0,0,0-15.771-4.56,23.353,23.353,0,0,0-13.87,4.18,36.191,36.191,0,0,0-9.88,10.64,51.478,51.478,0,0,0-5.984,14.06A56.922,56.922,0,0,0,1313.824,46.17Z" fill="#ab967c"/><path d="M1459.93,14.82a19.72,19.72,0,0,0-4.274-4.465,38.4,38.4,0,0,0-6.936-4.37,50.14,50.14,0,0,0-8.644-3.325,34.838,34.838,0,0,0-9.6-1.33,29.37,29.37,0,0,0-7.315.95,19.987,19.987,0,0,0-6.651,3.04,16.7,16.7,0,0,0-4.75,5.13,14.263,14.263,0,0,0-1.805,7.41,13.787,13.787,0,0,0,4.085,10.165,44.941,44.941,0,0,0,10.071,7.41q5.985,3.325,13.109,6.46a86.05,86.05,0,0,1,13.11,7.125,40.915,40.915,0,0,1,10.071,9.4,21.618,21.618,0,0,1,4.085,13.395,20.949,20.949,0,0,1-2.755,11.02,23.371,23.371,0,0,1-7.221,7.5,32.78,32.78,0,0,1-10.069,4.37,45,45,0,0,1-11.115,1.425,43.459,43.459,0,0,1-12.066-1.615,81.753,81.753,0,0,1-9.974-3.515,77.219,77.219,0,0,1-7.22-3.515,17.513,17.513,0,0,0-3.8-1.805V75.05A36.545,36.545,0,0,0,1413,88.635a35.889,35.889,0,0,0,20.14,5.6,36.648,36.648,0,0,0,8.17-.95,26.767,26.767,0,0,0,7.6-2.945,17.02,17.02,0,0,0,5.6-5.225,13.583,13.583,0,0,0,2.186-7.79,13.418,13.418,0,0,0-3.991-9.88,42.027,42.027,0,0,0-10.07-7.22q-6.083-3.228-13.109-6.175a85.145,85.145,0,0,1-13.111-6.84,36.659,36.659,0,0,1-10.07-9.405,22.388,22.388,0,0,1-3.989-13.49,22.125,22.125,0,0,1,2.375-10.545,23.77,23.77,0,0,1,6.364-7.6,27.06,27.06,0,0,1,9.12-4.655A37.976,37.976,0,0,1,1431.05,0a49.574,49.574,0,0,1,15.96,2.565,70.87,70.87,0,0,1,13.111,5.8Z" fill="#ab967c"/></g></g></g></g></svg>